<svg width="20.000000" height="24.000000" viewBox="0 0 20 24" fill="none" xmlns="http://www.w3.org/2000/svg" xmlns:xlink="http://www.w3.org/1999/xlink">
	<desc>
			Created with Pixso.
	</desc>
	<defs>
		<clipPath id="clip2_8">
			<rect id="boosty" width="20.000000" height="24.000000" fill="white" fill-opacity="0"/>
		</clipPath>
	</defs>
	<g clip-path="url(#clip2_8)">
		<path id="path" d="M0.92 13.97L5.07 -0.4L11.45 -0.4L10.16 4.05C10.15 4.08 10.14 4.1 10.12 4.13L6.74 15.89L9.89 15.89C8.57 19.19 7.54 21.77 6.8 23.64C0.97 23.58 -0.66 19.4 0.77 14.46L0.92 13.97ZM6.83 23.65L14.52 12.59L11.26 12.59L14.1 5.5C18.96 6.01 21.25 9.84 19.9 14.48C18.46 19.45 12.63 23.65 6.95 23.65C6.9 23.65 6.87 23.65 6.83 23.65Z" fill="#FFFFFF" fill-opacity="1.000000" fill-rule="nonzero"/>
	</g>
</svg>
