<svg width="20.000000" height="23.000000" viewBox="0 0 20 23" fill="none" xmlns="http://www.w3.org/2000/svg" xmlns:xlink="http://www.w3.org/1999/xlink">
	<desc>
			Created with Pixso.
	</desc>
	<defs>
		<clipPath id="clip2_11">
			<rect id="donalerts" width="20.000002" height="23.188406" transform="translate(-0.593140 -0.312744)" fill="white" fill-opacity="0"/>
		</clipPath>
	</defs>
	<g clip-path="url(#clip2_11)">
		<path id="DA_Logo" d="M9.51 13.19L7.93 13.19C7.84 13.19 7.76 13.15 7.69 13.09C7.63 13.03 7.6 12.95 7.61 12.87L7.75 11.45C7.76 11.3 7.9 11.19 8.07 11.19L9.64 11.19C9.74 11.19 9.82 11.22 9.88 11.28C9.95 11.34 9.98 11.42 9.97 11.5L9.83 12.92C9.81 13.07 9.67 13.19 9.51 13.19ZM9.76 10.41L8.16 10.41C7.98 10.41 7.84 10.27 7.84 10.1L8.27 5.32C8.29 5.16 8.43 5.05 8.59 5.05L10.19 5.05C10.37 5.05 10.51 5.19 10.51 5.36L10.06 10.14C10.04 10.29 9.91 10.41 9.76 10.41ZM19.17 4.83C19.34 5.03 19.42 5.29 19.4 5.55L18.77 12.66C18.75 12.89 18.65 13.11 18.48 13.27L13.37 18.21C13.18 18.38 12.94 18.48 12.68 18.48L7.24 18.48L2.45 22.87L2.82 18.48L0.38 18.48C0.11 18.48 -0.16 18.36 -0.34 18.16C-0.53 17.96 -0.62 17.69 -0.59 17.42L0.89 0.55C0.94 0.06 1.37 -0.32 1.87 -0.32L14.28 -0.32C14.57 -0.32 14.84 -0.19 15.02 0.02L19.17 4.83ZM15.38 11.3L15.77 6.91C15.79 6.65 15.7 6.4 15.52 6.2L13.18 3.52C13 3.31 12.73 3.19 12.45 3.18L5.08 3.18C4.58 3.18 4.16 3.56 4.11 4.06L3.23 13.93C3.21 14.2 3.3 14.47 3.49 14.67C3.67 14.87 3.93 14.98 4.2 14.99L11.45 14.99C11.7 14.99 11.94 14.89 12.12 14.72L15.08 11.92C15.25 11.75 15.36 11.53 15.38 11.3Z" fill="#FFFFFF" fill-opacity="1.000000" fill-rule="nonzero"/>
		<path id="DA_Logo" d="M7.93 13.19C7.84 13.19 7.76 13.15 7.69 13.09C7.63 13.03 7.6 12.95 7.61 12.87L7.75 11.45C7.76 11.3 7.9 11.19 8.07 11.19L9.64 11.19C9.74 11.19 9.82 11.22 9.88 11.28C9.95 11.34 9.98 11.42 9.97 11.5L9.83 12.92C9.81 13.07 9.67 13.19 9.51 13.19L7.93 13.19ZM8.16 10.41C7.98 10.41 7.84 10.27 7.84 10.1L8.27 5.32C8.29 5.16 8.43 5.05 8.59 5.05L10.19 5.05C10.37 5.05 10.51 5.19 10.51 5.36L10.06 10.14C10.04 10.29 9.91 10.41 9.76 10.41L8.16 10.41ZM19.4 5.55L18.77 12.66C18.75 12.89 18.65 13.11 18.48 13.27L13.37 18.21C13.18 18.38 12.94 18.48 12.68 18.48L7.24 18.48L2.45 22.87L2.82 18.48L0.38 18.48C0.11 18.48 -0.16 18.36 -0.34 18.16C-0.53 17.96 -0.62 17.69 -0.59 17.42L0.89 0.55C0.94 0.06 1.37 -0.32 1.87 -0.32L14.28 -0.32C14.57 -0.32 14.84 -0.19 15.02 0.02L19.17 4.83C19.34 5.03 19.42 5.29 19.4 5.55ZM15.77 6.91C15.79 6.65 15.7 6.4 15.52 6.2L13.18 3.52C13 3.31 12.73 3.19 12.45 3.18L5.08 3.18C4.58 3.18 4.16 3.56 4.11 4.06L3.23 13.93C3.21 14.2 3.3 14.47 3.49 14.67C3.67 14.87 3.93 14.98 4.2 14.99L11.45 14.99C11.7 14.99 11.94 14.89 12.12 14.72L15.08 11.92C15.25 11.75 15.36 11.53 15.38 11.3L15.77 6.91Z" stroke="#000000" stroke-opacity="0" stroke-width="1.000000"/>
	</g>
</svg>
