<svg width="555" height="657" viewBox="0 0 555 657" fill="none" xmlns="http://www.w3.org/2000/svg">
<g clip-path="url(#clip0_465_4)">
<path d="M275.531 112.16L130.078 108.049L174.293 82.168L210.907 79.272L246.552 88.881L275.531 112.16Z" fill="white"/>
<path d="M188.891 140.105C170.145 118.183 54.8498 155.377 66.0198 177.783C73.8508 193.493 144.66 165.679 157.284 163.786C168.962 162.034 182.281 156.912 193.544 153.092C198.501 151.411 212.374 154.153 208.972 150.175" fill="white"/>
<path d="M110.056 193.503C108.496 191.044 99.3321 195.474 96.4031 196.203C59.4631 205.389 -54.5999 332.068 53.8331 263.253C64.8621 256.254 75.4311 248.864 84.4681 239.363C95.7091 227.543 114.149 214.838 122.486 200.981" fill="white"/>
<path d="M42.9418 298.987C18.9058 296.086 -4.54618 411.601 7.65582 413.073C44.6888 417.543 50.6228 291.299 69.4458 276.53" fill="white"/>
<path d="M36.4626 415.934C19.8176 424.457 40.3026 522.12 55.6596 517.772C93.1046 507.172 44.0896 397.766 61.3246 374.319" fill="white"/>
<path d="M83.8411 487.84C74.9751 508.098 121.89 616.181 146.379 599.73C172.323 582.302 90.439 434.929 86.61 460.916" fill="white"/>
<path d="M160.135 555.646C156.235 569.763 232.893 643.292 242.01 633.169C272.482 599.336 152.101 539.704 152.935 543.951" fill="white"/>
<path d="M228.581 29.183C221.957 22.072 245.126 24.887 247.357 25.719C252.429 27.612 273.198 33.271 296.316 44.984C355.678 75.061 439.835 129.389 382.483 146.274" fill="white"/>
<path d="M376.777 57.2802C370.44 58.8242 346.649 9.90318 354.024 8.10618C367.216 4.89218 472.943 121.586 470.631 131.1C463.061 162.255 393.78 116.542 394.387 94.2672" fill="white"/>
<path d="M462.541 102.014C455.629 95.1771 439.918 60.6601 436.76 51.3581C423.425 12.0681 517.014 127.009 523.876 163.614C533.766 216.366 477.932 165.033 470.022 141.727" fill="white"/>
<path d="M195.42 104.375C216.718 99.154 248.27 99.166 274.48 112.829C300.69 126.492 300.01 147.512 300.26 159.028C288.23 175.811 254.105 186.291 226.362 179.963C215.63 158.577 204.224 145.177 189.286 133.712C181.55 114.816 174.121 109.596 195.42 104.375Z" fill="white"/>
<path d="M207.642 150.775C179.801 146.145 134.193 156.018 113.497 167.291C92.8008 178.564 112.519 181.041 124.86 195.867C137.201 210.694 137.861 229.11 162.861 226.596C187.861 224.082 213.665 204.766 224.86 185.81C236.056 166.855 235.483 155.404 207.642 150.775Z" fill="white"/>
<path d="M39.539 267.706C45.876 253.729 111.905 183.263 128.725 186.645C145.545 190.028 173.664 213.109 169.129 234.074C164.594 255.038 154.872 288.641 131.715 299.235C108.558 309.829 97.883 285.973 76.501 276.451C55.118 266.93 33.202 281.683 39.539 267.706Z" fill="white"/>
<path d="M251.87 606.912C278.749 624.226 303.347 640.735 348.044 642.484C370.359 627.811 404.425 654.993 429.534 621.575C434.564 602.72 472.777 609.118 517.413 566.345C515.274 543.975 484.777 571.194 491.037 554.942C497.298 538.69 515.878 545.282 540.78 491.26C537.882 470.358 553.607 453.706 479.447 471.335C405.288 488.964 304.919 529.007 248.025 562.902C191.13 596.796 224.991 589.597 251.87 606.912Z" fill="white"/>
<path d="M24.5961 379.303C28.0161 351.503 33.2421 314.445 60.5331 285.443C74.3391 271.685 87.405 275.723 102.442 280.936C118.816 282.116 127.62 292.048 127.929 313.442C128.238 334.835 127.581 353.297 110.091 368.174C92.6021 383.05 71.0011 371.755 57.9711 372.949C44.9411 374.143 23.4801 395.36 24.5961 379.303Z" fill="white"/>
<path d="M56.594 481.056C29.419 445.082 38.57 403.143 51.283 380.425C63.995 357.707 99.807 356.825 115.521 372.253C131.235 387.681 152.147 409.26 135.809 430.951C91.148 434.775 72.308 496.484 56.594 481.056Z" fill="white"/>
<path d="M93.151 457.347C88.119 467.944 92.0971 580.293 132.88 589.391C159.296 584.565 150.227 537.069 158.525 527.312C166.823 517.555 180.948 526.446 171.533 504.662C162.117 482.878 141.517 430.882 120.863 440.174C103.005 448.209 95.036 453.379 93.151 457.347Z" fill="white"/>
<path d="M152.681 543.156C159.477 549.147 166.99 566.933 180.153 583.519C204.024 613.598 236.379 645.27 245.19 634.745C242.93 599.117 250.724 559.885 250.724 559.885L277.389 510.233L214.727 474.169L170.302 506.685C170.302 506.685 158.905 526.807 152.681 543.156Z" fill="white"/>
<path d="M278.54 510.591L255.829 553.966L321.224 563.969L325.336 513.746L278.54 510.591Z" fill="white"/>
<path d="M319.342 571.947L383.136 575.695L445.452 534.476L488.525 472.848L433.653 459.394L325.228 517.318L319.342 571.947Z" fill="white"/>
<path d="M435.068 459.537C450.78 467.095 486.611 468.544 538.43 489.508C548.122 463.221 544.428 436.068 539.454 397.498C514.158 364.418 507.312 348.658 461.493 335.1C415.921 321.761 382.697 365.293 373.848 382.431C365 399.568 411.247 356.216 442.128 386.28C454.927 414.053 436.205 417.472 435.068 459.537Z" fill="white"/>
<path d="M262.566 55.9011C258.534 25.7271 354.48 94.0981 379.566 118.297C384.411 122.972 398.686 134.874 403.514 123.384C398.017 92.1091 371.184 62.8671 364.449 37.5591C375.341 24.8201 397.921 62.6991 421.599 88.2881C433.426 101.071 452.954 133.334 464.27 133.224C480.621 133.065 442.089 68.4321 452.847 72.4581C460.212 75.2141 490.091 115.143 498.184 133.804C502.999 144.906 505.056 157.193 520.298 176.029C523.06 179.442 522.387 177.735 523.586 182.039C541.171 266.89 570.279 270.715 532.38 296.812C492.091 307.896 437.313 256.513 379.775 217.298C322.236 178.083 347.847 165.867 313.699 120.406C284.576 70.5011 278.949 91.3681 262.566 55.9011Z" fill="white"/>
<path d="M489.125 225.844C488.69 226.095 488.462 226.53 488.625 226.812C490.258 229.905 492.582 232.516 494.562 235.375C496.011 237.465 497.383 239.636 498.844 241.719C500.931 244.694 503.085 247.598 505.312 250.469C506.38 251.845 507.436 253.291 508.594 254.594C509.407 255.509 510.292 256.351 511.125 257.25C513.64 259.964 517.38 262.984 521.219 263.281C522.704 263.396 524.102 262.993 525.438 262.375C526.453 262.02 526.858 260.469 526.312 258.906C525.767 257.344 524.484 256.364 523.469 256.719C523.808 256.6 524.14 256.472 524.5 256.438C524.602 256.428 524.914 256.454 524.812 256.469C524.335 256.54 523.737 256.258 523.312 256.094C522.335 255.715 521.428 255.196 520.531 254.656C519.002 253.736 517.424 252.814 515.969 251.781C514.602 250.811 513.279 249.726 511.938 248.719C507.925 245.708 504.193 242.332 500.594 238.844C496.633 235.005 492.816 230.827 490.219 225.906C490.056 225.623 489.56 225.593 489.125 225.844Z" fill="#16152F"/>
<path d="M303.101 149.674C277.743 144.999 235.986 156.108 221.195 173.099C231.573 198.871 243.994 228.383 243.994 228.383L316.572 205.938C316.572 205.938 305.85 182.502 303.101 149.674Z" fill="white"/>
<path d="M220.647 174.472C186.709 183.726 169.99 202.133 161.326 227.887C177.052 248.774 207.249 280.885 207.249 280.885L245.198 229.917C245.198 229.917 234.811 189.322 220.647 174.472Z" fill="white"/>
<path d="M161.565 226.866C142.581 239.556 129.953 259.586 120.661 295.547C131.156 311.818 170.971 331.901 169.747 331.422C168.522 330.944 203.044 277.962 203.044 277.962C203.044 277.962 178.477 243.498 161.565 226.866Z" fill="white"/>
<path d="M121.869 297.96C99.2497 323.527 102.007 363.126 106.239 373.504C100.448 399.079 100.747 413.838 116.061 439.83C144.273 426.402 180.857 414.43 180.857 414.43L176.613 332.618C176.613 332.618 136.849 305.869 121.869 297.96Z" fill="white"/>
<path d="M117.622 441.338C121.573 483.499 140.741 508.853 161.264 518.039C182.932 495.57 226.992 459.724 226.992 459.724L191.601 411.246C191.601 411.246 129.997 434.76 117.622 441.338Z" fill="white"/>
<path d="M164.065 521.377C174.114 549.509 235.718 581.659 247.235 573.398C250.088 563.84 249.004 557.424 254.516 546.614C244.743 529.35 188.727 525.097 182.487 499.896C175.821 504.915 172.168 514.477 164.065 521.377Z" fill="white"/>
<path d="M248.54 576.102C259.085 595.396 308.316 597.233 321.5 586.161C317.858 567.947 319.32 574.336 321.042 557.052C304.997 547.098 280.737 562.518 256.874 550.265C254.157 565.382 251.176 559.205 248.54 576.102Z" fill="white"/>
<path d="M323.168 588.974C333.941 592.486 348.761 581.245 363.758 596.875C389.544 623.558 418.003 621.703 425.22 623.564C439.475 624.872 434.223 620.331 428.927 619.114C424.982 611.152 396.276 612.912 378.593 573.722C367.652 568.94 334.018 573.469 322.399 553.546C319.174 559.215 319.774 585.809 323.168 588.974Z" fill="white"/>
<path d="M387.113 592.332C401.929 590.74 418.72 562.033 434.364 566.745C465.144 576.018 492.294 573.255 514.57 566.799C531.085 561.235 507.126 557.076 507.126 557.076C507.126 557.076 475.358 569.795 435.259 534.434C407.976 529.365 390.95 561.743 376.952 573.469C382.511 588.179 381.951 583.338 387.113 592.332Z" fill="white"/>
<path d="M243.97 135.185C242.584 124.615 212.775 106.243 200.222 102.455C171.889 93.905 139.122 103.113 133.772 108.988C131.843 112.984 121.799 116.072 129.156 121.149C136.512 126.227 155.504 113.062 175.547 120.097C195.59 127.133 190.93 141.352 206.251 147.205C219.236 143.761 245.356 145.754 243.97 135.185Z" fill="white"/>
<path d="M459.378 550.262C468.669 535.077 461.395 507.493 482.994 497.862C504.594 488.231 524.219 501.624 537.018 493.804C529.804 484.504 497.108 477.176 484.128 471.695C458.528 482.038 445.885 516.624 436.097 533.465C440.541 540.203 454.697 545.67 459.378 550.262Z" fill="white"/>
<path d="M163.914 180.562C147.861 157.172 73.2598 163.859 65.1658 178.043C56.6478 186.635 45.0478 191.76 54.0238 195.037C62.9988 198.313 85.2238 183.322 105.783 184.735C126.342 186.149 124.02 197.479 137.845 197.615C153.331 189.992 164.986 189.263 163.914 180.562Z" fill="white"/>
<path d="M112.163 245.216C122.143 250.309 109.195 264.495 92.4898 278.308C71.3468 276.673 46.5328 274.31 11.1658 298.115C0.13678 292.475 1.01979 296.004 12.6838 284.146C29.1568 255.315 101.134 239.577 112.163 245.216Z" fill="white"/>
<path d="M77.4837 340.066C49.6287 337.028 14.0227 382.536 7.15171 406.091C6.00871 420.02 3.21072 425.418 10.1997 425.203C17.1897 424.989 18.0177 407.771 35.2677 394.679C52.5187 381.586 58.1237 374.367 76.2347 372.026C83.1707 359.314 90.1037 345.813 77.4837 340.066Z" fill="white"/>
<path d="M82.3435 429.213C71.4305 424.93 67.2585 432.003 60.2025 453.645C53.1465 475.286 53.0675 495.346 55.4895 518.895C57.9125 542.445 60.4256 529.132 68.6566 521.738C70.4886 508.688 65.5305 506.704 74.0205 487.438C82.5105 468.171 79.4715 468.926 93.6855 457.458C92.5105 443.21 94.6305 434.418 82.3435 429.213Z" fill="white"/>
<path d="M82.2877 532.626C78.8287 517.734 62.5147 495.721 93.5797 460.582C85.5427 547.597 123.092 574.004 137.001 578.925C150.909 583.847 131.718 540.758 135.736 529.944C139.755 519.129 148.524 516.583 153.074 535.666C152.043 556.382 163.42 587.704 161.359 606.541C159.298 625.379 159.829 620.129 144.83 611.016C129.831 601.904 116.997 589.69 101.362 570.092C85.7257 550.495 85.7457 547.518 82.2877 532.626Z" fill="white"/>
<path d="M161.523 575.285C155.032 560.399 151.724 557.632 154.974 538.923C162.9 559.226 186.387 588.76 206.842 607.195C215.282 614.802 223.206 620.519 229.309 622.919C255.251 637.606 225.702 605.123 232.047 588.973C240.378 580.712 245.775 596.248 247.692 597.96C255.993 614.351 255.274 630.182 268.634 646.713C265.628 653.087 244.261 649.851 226.435 638.141C208.333 626.921 174.448 589.591 161.523 575.285Z" fill="white"/>
<path d="M260.805 631.622C255.309 622.339 249.7 611.178 246.908 595.278C268.039 617.097 314.474 631.438 330.203 632.631C345.932 633.823 313.394 613.659 313.155 606.171C319.808 599.423 321.214 606.035 329.246 602.681C337.421 618.65 341.764 623.306 363.961 646.718C352.891 651.227 330.892 653.506 330.892 653.506C330.892 653.506 280.968 644.648 260.805 631.622Z" fill="white"/>
<path d="M210.257 16.374C256.585 19.104 339.714 122.18 359.349 149.496C378.984 176.812 388.766 188.087 440.721 192.835C464.433 195.002 475.237 204.058 502.985 230.846C505.782 233.546 510.752 239.395 514.842 238.381C518.932 237.366 518.642 235.382 518.762 231.249C519.575 203.18 508.728 153.86 522.778 163.238C535.699 193.96 544.804 256.417 548.534 273.1C553.196 293.95 532.126 316.543 494.394 316.5C443.791 308.947 398.563 283.471 388.639 263.926C379.981 246.873 337.388 215.31 323.603 153.817C274.794 53.247 241.79 48.922 210.257 16.374Z" fill="white"/>
<path d="M481.283 468.818C476.508 456.219 477.924 424.099 490.73 406.673C509.067 407.047 497.937 320.831 532.51 399.115C537.806 406.715 539.633 411.2 542.08 419.591C535.257 425.784 516.974 409.245 505.217 423.889C493.46 438.533 517.406 471.538 510.699 479.864C501.79 480.342 496.276 478.313 481.283 468.818Z" fill="white"/>
<path d="M303.71 166.988C302.819 188.859 306.703 192.272 305.815 199.044C304.928 205.815 288.661 207.152 285.334 204.308C282.006 201.464 281.356 192.854 277.843 191.367C274.33 189.88 272.313 191.035 271.98 195.742C271.646 200.448 272.923 201.414 271.791 205.155C270.646 207.571 267.668 210.039 263.184 206.497C258.7 202.955 261.244 200.102 258.441 197.1C255.638 194.097 252.613 194.346 251.296 198.719C249.979 203.092 255.149 209.396 253.172 214.59C251.195 219.785 244.862 220.375 241.81 216.962C241.538 226.58 246.118 238.273 246.118 238.273L324.569 217.814C324.569 217.814 314.445 193.503 303.71 166.988Z" fill="#16152F"/>
<path d="M240.415 219.315C231.425 229.419 231.248 233.01 222.37 234.387C213.493 235.765 210.466 226.76 207.22 224.05C203.974 221.341 195.615 222.837 198.893 228.948C202.171 235.058 208.979 238.377 208.495 248.838C208.011 259.298 202.912 261.658 192.495 264.635C200.661 278.172 213.383 286.578 213.383 286.578L247.771 241.142C247.771 241.142 243.24 237.31 240.415 219.315Z" fill="#16152F"/>
<path d="M190.886 265.463C191.538 274.82 191.854 284.768 180.936 287.173C170.018 289.577 164.581 281.989 157.039 279.742C149.497 277.496 145.763 282.779 151.172 288.493C156.581 294.208 167.259 295.269 169.36 304.259C171.461 313.249 156.976 316.741 152.024 318.874C165.74 332.285 183.259 334.615 183.259 334.615L208.292 286.866C208.292 286.866 196.995 271.182 190.886 265.463Z" fill="#16152F"/>
<path d="M152.058 319.539C156.976 330.866 163.75 342.131 158.31 348.322C152.869 354.512 139.942 347.432 134.939 347.896C129.936 348.361 128.226 356.709 132.372 359.229C136.519 361.749 154.053 361.681 157.941 365.591C161.828 369.5 162.644 379.029 158.634 383.388C154.623 387.746 143.789 385.059 136.825 388.297C129.861 391.534 131.785 398.866 139.616 400.162C147.447 401.457 161.991 397.295 164.886 400.53C167.78 403.765 169.019 406.253 167.479 419.332C182.034 413.178 194.525 411.976 194.525 411.976L182.124 338.639C182.124 338.639 165.472 329.494 152.058 319.539Z" fill="#16152F"/>
<path d="M167.935 420.119C178.01 426.565 180.089 430.745 180.208 438.154C180.328 445.562 171.142 445.281 167.898 449.7C164.653 454.119 166.529 459.206 171.598 458.425C176.667 457.645 182.94 449.661 192.272 454.293C201.604 458.925 204.126 469.73 205.761 478.366C211.417 472.707 224.088 462.434 219.512 446.811C214.936 431.188 205.761 422.881 190.615 413.945C175.469 405.01 176.197 418.782 167.935 420.119Z" fill="#16152F"/>
<path d="M206.332 479.678C225.669 481.296 229.361 485.684 233.553 489.362C237.745 493.041 227.007 505.729 225.585 510.467C224.163 515.206 231.053 519.859 234.961 516.408C238.869 512.956 243.652 498.21 251.653 500.125C259.654 502.041 262.701 504.81 271.814 515.651C277.316 502.592 281.438 492.834 281.438 492.834L225.569 463.135C225.569 463.135 213.521 474.547 206.332 479.678Z" fill="#16152F"/>
<path d="M275.714 514.609C294.356 511.134 311.237 516.441 322.037 521.176C322.052 513.06 321.441 506.469 321.441 506.469L280.919 499.555C280.919 499.555 281.698 506.529 275.714 514.609Z" fill="#16152F"/>
<path d="M324.092 521.407C341.124 516.513 351.761 516.858 362.873 519.042C357.462 507.762 358.709 502.068 358.709 502.068L323.9 506.435C323.9 506.435 326.225 513.3 324.092 521.407Z" fill="#16152F"/>
<path d="M362.067 517.682C368.727 512.751 394.082 503.167 404.83 503.396C400.457 494.815 397.907 488.832 397.907 488.832L359.791 504.203C359.791 504.203 361.151 511.079 362.067 517.682Z" fill="#16152F"/>
<path d="M407.169 498.567C412.733 489.248 427.708 472.443 442.871 464.06C429.572 457.904 426.383 456.925 426.383 456.925L397.56 486.501C397.56 486.501 401.054 492.074 407.169 498.567Z" fill="#16152F"/>
<path d="M442.133 460.8C439.942 449.626 445.974 437.824 461.104 416.032C455.478 414.307 445.485 419.528 445.485 419.528C445.485 419.528 434.473 453.83 433.376 455.568C432.28 457.306 436.744 456.774 442.133 460.8Z" fill="#16152F"/>
<path d="M458.728 413.595C453.267 403.966 452.296 396.335 450.091 391.455C447.886 386.575 443.581 381.42 441.416 379.059C439.251 376.697 435.953 374.104 429.831 371.289C423.709 368.474 416.607 367.277 409.62 367.79C402.587 369.23 386.807 371.28 374.235 385.282C376.575 389.549 379.859 388.215 379.859 388.215L408.117 380.908L427.579 387L434.951 405.152L439.815 420.186C439.815 420.186 448.632 416.798 458.728 413.595Z" fill="#16152F"/>
<path d="M524.459 404.098C538.985 440.741 528.239 464.085 530.388 483.882C505.61 551.989 534.304 497.514 538.533 487.049C542.763 476.584 547.532 463.289 547.306 442.022C547.08 420.755 520.748 371.156 516.405 362.616C503.899 378.442 527.004 389.225 524.459 404.098Z" fill="white"/>
<path d="M317.075 209.287C307.81 218.382 296.538 225.725 278.912 222.185C272.404 229.991 277.67 241.053 290.237 243.351C305.604 245.062 309.046 234.358 313.527 230.317C316.411 232.517 322.774 239.996 336.144 230.107C332.893 224.068 322.492 223.294 317.075 209.287Z" fill="white"/>
<path d="M271.103 223.781C262.304 234.272 252.507 236.028 243.148 234.055C242.853 243.997 251.616 257.378 251.616 257.378L279.338 244.858C279.338 244.858 278.172 227.403 271.103 223.781Z" fill="white"/>
<path d="M242.641 235.131C233.505 251.07 224.967 264.289 204.419 276.966C202.032 278.438 220.777 290.799 220.777 290.799L242.932 278.521L250.216 257.51C250.216 257.51 244.982 242.138 242.641 235.131Z" fill="white"/>
<path d="M202.688 278.683C197.881 296.624 186.025 323.203 174.267 333.267C191.038 342.453 204.049 337.404 204.049 337.404C204.049 337.404 207.588 329.43 211.93 319.646C216.272 309.863 221.416 298.272 221.416 298.272C221.416 298.272 213.396 285.805 202.688 278.683Z" fill="white"/>
<path d="M170.397 333.152C180.541 354.126 182.913 393.124 180.456 415.486C202.609 409.825 209.924 406.422 209.924 406.422L200.085 342.073C200.085 342.073 191.314 341.306 170.397 333.152Z" fill="white"/>
<path d="M181.335 414.58C191.2 427.216 212.166 452.862 216.908 470.393C227.807 457.336 238.53 443.357 238.53 443.357L227.221 419.585L208.473 407.685C208.473 407.685 194.989 409.48 181.335 414.58Z" fill="white"/>
<path d="M219.068 470.839C235.055 474.788 268.634 493.227 275.275 506.045C278.536 490.945 279.655 467.266 279.655 467.266L240.446 445.525C240.446 445.525 231.571 456.843 219.068 470.839Z" fill="white"/>
<path d="M278.5 505.34C292.101 501.336 306.57 506.784 322.003 510.931C322.626 493.702 313.758 476.801 313.758 476.801L282.528 471.69C282.528 471.69 280.211 488.171 278.5 505.34Z" fill="white"/>
<path d="M324.85 508.042L357.285 506.355L351.708 479.275L317.211 482.428L324.85 508.042Z" fill="white"/>
<path d="M360.098 508.587C369.78 501.958 382.457 494.585 398.144 494.849C396.588 483.869 392.101 479.807 386.36 473.989C374.949 471.862 359.066 477.69 352.501 486.34C353.847 492.529 356.188 498.815 360.098 508.587Z" fill="white"/>
<path d="M402.381 490.657C410.16 477.774 425.011 464.631 434.825 460.8C432.649 453.531 421.799 452.921 415.132 451.75C404.358 455.419 396.639 460.772 391.944 470.591C390.358 476.286 395.318 483.303 402.381 490.657Z" fill="white"/>
<path d="M436.209 456.487C434.956 443.636 448.422 426.58 454.694 416.115C453.021 409.509 433.92 420.222 426.341 428.713C418.762 437.204 418.128 444.453 419.801 451.059C421.473 457.665 428.63 464.978 436.209 456.487Z" fill="white"/>
<path d="M452.599 415.174C448.22 411.357 446.21 397.491 442.689 390.441C439.636 384.327 434.636 378.664 430.048 376.245C425.772 373.99 421.801 372.292 414.775 371.993C400.213 371.373 374.437 384.754 376.086 387.665C377.734 390.576 403.309 380.597 416.888 385.324C430.466 390.051 431.155 395.415 436.851 403.801C442.548 412.188 435.117 419.485 439.674 418.87C443.651 418.333 455.651 417.834 452.599 415.174Z" fill="white"/>
<path d="M386.092 250.572C383.493 252.25 400.371 282.709 427.737 296.622C455.103 310.535 471.121 312.87 496.941 315.831C522.761 318.791 518.551 315.798 531.017 308.463C543.483 301.128 553.054 275.253 548.918 269.601C543.94 290.718 528.728 293.287 516.297 296.299C471.81 307.078 408.634 268.248 386.092 250.572Z" fill="white"/>
<path d="M207.832 16.4229C317.232 30.4409 402.718 123.349 402.718 123.349C402.718 123.349 393.297 75.7039 343.286 5.00391C381.806 5.29991 470.136 128.729 470.136 128.729C470.136 128.729 459.62 86.7599 425.409 36.6669C492.99 62.7329 527.542 179.219 527.684 188.111C528.541 241.95 572.036 271.305 534.62 305.048C494.429 341.294 406.067 290.402 387.142 265.485C384.936 262.581 386.455 256.279 386.665 256.107C340.459 217.217 333.796 194.098 326.284 166.543C305.036 88.6029 262.387 60.3119 207.832 16.4229Z" stroke="#16152F" stroke-width="10" stroke-miterlimit="10" stroke-linejoin="round"/>
<path d="M534.355 224.243C534.355 224.243 534.993 211.535 541.583 211.48C548.067 211.427 557.991 230.639 544.012 249.962C541.139 242.255 534.355 224.243 534.355 224.243Z" fill="white" stroke="#16152F" stroke-width="6.56949" stroke-miterlimit="10" stroke-linejoin="round"/>
<path d="M387.056 201.341C387.056 201.341 406.419 237.355 426.478 248.441C452.913 263.05 488.845 267.478 488.845 267.478C488.845 267.478 502.352 234.785 454.859 208C437.806 198.383 387.056 201.341 387.056 201.341Z" fill="#16152F" stroke="#16152F" stroke-width="3.60098" stroke-miterlimit="10" stroke-linecap="round" stroke-linejoin="round"/>
<path d="M419.569 213.542C419.569 213.542 426.947 240.108 440.969 245.48C455.089 250.889 475.086 250.517 475.086 250.517C475.086 250.517 472.897 228.012 457.059 220.361C442.942 213.542 419.569 213.542 419.569 213.542Z" fill="white" stroke="#16152F" stroke-width="5.12383" stroke-miterlimit="10" stroke-linejoin="round"/>
<path d="M530.47 211.292C527.954 203.218 529.107 202.17 536.656 197.242C545.673 194.516 550.287 200.702 545.778 206.574C535.084 221.043 534.874 229.221 530.47 211.292Z" fill="#16152F" stroke="#16152F" stroke-width="5.12383" stroke-miterlimit="10" stroke-linejoin="round"/>
<path d="M379.332 252.991L381.354 252.253" stroke="#16152F" stroke-width="5" stroke-miterlimit="10" stroke-linecap="round" stroke-linejoin="round"/>
<path d="M370.183 238.545C380.845 247.162 384.199 249.575 387.997 252.009C399.626 259.462 411.378 266.421 423.371 273.325C455.989 292.103 530.931 317.318 547.09 269.357" stroke="#16152F" stroke-width="5" stroke-miterlimit="10" stroke-linecap="round" stroke-linejoin="round"/>
<mask id="mask0_465_4" style="mask-type:luminance" maskUnits="userSpaceOnUse" x="0" y="73" width="552" height="584">
<path d="M551.265 73.4341H0.227051V656.966H551.265V73.4341Z" fill="white"/>
<path d="M335.223 229.703C331.214 232.131 329.316 238.97 313.029 229.894C303.833 241.189 296.471 242.796 282.615 236.25C279.522 234.789 279.174 252.832 249.095 253.1C244.326 253.143 248.57 281.951 215.468 287.657C209.991 288.601 225.317 325.65 191.064 339.318C188.773 340.233 207.762 349.531 203.908 408.961C203.552 414.451 229.692 413.534 232.71 449.54C233.09 454.076 263.658 448.845 276.533 477.079C279.474 483.526 299.621 469.115 315.088 488.094C318.022 491.695 331.213 469.547 352.206 488.643C357.063 493.06 360.299 465.973 390.364 477.355C395.542 479.316 393.868 456.83 421.653 455.287C428.611 454.9 420.601 436.975 439.614 426.55C444.454 423.896 439.221 408.725 438.656 400.687C437.64 386.248 420.094 365.805 377.158 385.771C374.276 385.905 407.657 308.289 489.267 350.929C506.336 359.847 560.163 401.978 534.4 489.328C521.72 529.705 480.211 558.678 480.211 558.678C480.211 558.678 497.563 562.809 516.083 560.828C447.627 631.041 398.207 600.879 398.207 600.879C398.207 600.879 412.869 617.371 427.352 621.149C379.078 652.438 329.346 612.85 329.346 612.85C329.346 612.85 345.255 635.421 357.373 644.21C278.69 653.533 247.06 607.821 247.06 607.821C247.06 607.821 246.841 625.616 265.124 646.96C209.589 647.772 150.544 548.832 150.544 548.832C150.544 548.832 149.861 578.372 157.818 611.751C50.2901 542.681 84.3621 464.202 84.3621 464.202C84.3621 464.202 64.594 483.28 62.916 525.08C3.70005 437.327 58.8291 373.83 58.8291 373.83C58.8291 373.83 19.6171 384.842 10.7311 419.527C3.53506 316.924 75.7551 276.491 75.7551 276.491C75.7551 276.491 59.8381 265.099 13.6711 292.528C41.7611 207.093 124.708 192.487 124.708 192.487C124.708 192.487 111.468 167.06 59.0591 190.996C127.865 103.293 210.681 154.892 210.681 154.892C210.681 154.892 193.161 103.567 128.549 117.224C187.931 57.4109 248.274 90.1329 274.649 115.59C312.342 150.767 298.644 210.019 335.223 229.703Z" fill="black"/>
</mask>
<g mask="url(#mask0_465_4)">
<path d="M335.223 229.703C331.214 232.131 329.316 238.97 313.029 229.894C303.833 241.189 296.471 242.796 282.615 236.25C279.522 234.789 279.174 252.832 249.095 253.1C244.326 253.143 248.57 281.951 215.468 287.657C209.991 288.601 225.317 325.65 191.064 339.318C188.773 340.233 207.762 349.531 203.908 408.961C203.552 414.451 229.692 413.534 232.71 449.54C233.09 454.076 263.658 448.845 276.533 477.079C279.474 483.526 299.621 469.115 315.088 488.094C318.022 491.695 331.213 469.547 352.206 488.643C357.063 493.06 360.299 465.973 390.364 477.355C395.542 479.316 393.868 456.83 421.653 455.287C428.611 454.9 420.601 436.975 439.614 426.55C444.454 423.896 439.221 408.725 438.656 400.687C437.64 386.248 420.094 365.805 377.158 385.771C374.276 385.905 407.657 308.289 489.267 350.929C506.336 359.847 560.163 401.978 534.4 489.328C521.72 529.705 480.211 558.678 480.211 558.678C480.211 558.678 497.563 562.809 516.083 560.828C447.627 631.041 398.207 600.879 398.207 600.879C398.207 600.879 412.869 617.371 427.352 621.149C379.078 652.438 329.346 612.85 329.346 612.85C329.346 612.85 345.255 635.421 357.373 644.21C278.69 653.533 247.06 607.821 247.06 607.821C247.06 607.821 246.841 625.616 265.124 646.96C209.589 647.772 150.544 548.832 150.544 548.832C150.544 548.832 149.861 578.372 157.818 611.751C50.2901 542.681 84.3621 464.202 84.3621 464.202C84.3621 464.202 64.594 483.28 62.916 525.08C3.70005 437.327 58.8291 373.83 58.8291 373.83C58.8291 373.83 19.6171 384.842 10.7311 419.527C3.53506 316.924 75.7551 276.491 75.7551 276.491C75.7551 276.491 59.8381 265.099 13.6711 292.528C41.7611 207.093 124.708 192.487 124.708 192.487C124.708 192.487 111.468 167.06 59.0591 190.996C127.865 103.293 210.681 154.892 210.681 154.892C210.681 154.892 193.161 103.567 128.549 117.224C187.931 57.4109 248.274 90.1329 274.649 115.59C312.342 150.767 298.644 210.019 335.223 229.703Z" stroke="#16152F" stroke-width="20" stroke-miterlimit="10" stroke-linejoin="round"/>
</g>
<path d="M273.781 208.031C271.021 208.115 268.854 210.396 268.938 213.156C269.291 224.88 269.895 238.522 279 247.125C281.01 249.019 284.169 248.947 286.062 246.938C287.956 244.928 287.853 241.738 285.844 239.844C282.909 237.088 281.427 233.297 280.531 229.438C279.274 224.019 279.104 218.411 278.938 212.875C278.854 210.115 276.541 207.948 273.781 208.031Z" fill="#16152F"/>
<path d="M195.156 138.438C194.574 138.547 194.017 138.878 193.656 139.406C192.934 140.463 193.194 141.903 194.25 142.625C195.165 143.501 196.109 144.473 196.812 145.531C197.91 147.182 198.627 149.05 199.812 150.656C200.175 151.147 200.644 151.63 201 152.125C201.81 153.251 202.445 154.519 203.188 155.688C204.434 157.651 205.695 159.596 206.938 161.562C209.825 166.132 212.567 170.816 215.094 175.594C216.261 177.801 217.516 179.965 218.656 182.188C219.367 183.573 219.992 185.014 220.688 186.406C221.881 188.794 223.179 191.113 224.312 193.531C226.666 198.552 228.922 203.634 231.062 208.75C232.6 212.424 233.953 216.169 235.406 219.875C236.032 221.47 236.699 223.044 237.281 224.656C238.441 227.867 239.466 231.104 240.625 234.312C241.201 235.908 241.723 237.525 242.281 239.125C242.651 240.186 243.093 241.212 243.438 242.281C243.95 243.871 244.276 245.544 244.812 247.125C245.875 250.255 247.294 253.223 248.219 256.406C249.099 259.434 249.619 262.598 250.031 265.719C250.171 266.62 251.005 267.234 251.906 267.094C252.807 266.954 253.421 266.12 253.281 265.219C252.619 261.517 251.996 257.773 251.625 254.031C251.347 251.235 251.35 248.371 250.906 245.594C250.636 243.906 250.08 242.293 249.719 240.625C249.474 239.498 249.31 238.345 249.062 237.219C247.065 228.119 244.105 219.2 240.969 210.438C238.27 202.896 235.24 195.524 232.031 188.188C231.154 186.181 230.34 184.137 229.406 182.156C228.056 179.293 226.557 176.48 225.125 173.656C221.345 166.202 217.104 158.929 212.156 152.188C211.682 151.542 211.222 150.873 210.719 150.25C209.767 149.071 208.673 148.024 207.688 146.875C206.776 145.813 205.951 144.725 204.875 143.812C203.666 142.788 202.208 142.057 200.875 141.219C199.541 140.38 198.295 139.509 196.875 138.812C196.347 138.452 195.739 138.328 195.156 138.438Z" fill="#16152F"/>
<path d="M108.312 183.5C107.145 183.486 105.964 183.532 104.812 183.562C103.663 183.593 102.524 183.569 101.375 183.594C100.797 183.606 100.197 183.538 99.625 183.625C99.049 183.712 98.498 183.932 97.938 184.094C96.86 184.143 96.045 185.079 96.094 186.156C96.143 187.233 97.048 188.049 98.125 188C98.666 188.112 99.2 188.283 99.75 188.344C100.263 188.4 100.766 188.316 101.281 188.344C102.307 188.398 103.372 188.466 104.375 188.688C106.368 189.127 108.227 190.033 110.219 190.469C112.742 191.021 115.251 191.431 117.656 192.438C118.502 192.792 119.709 193.407 120.438 193.969C120.878 194.309 121.224 194.743 121.656 195.094C122.495 195.774 123.412 196.342 124.312 196.938C126.158 198.159 128.119 199.222 129.906 200.531C132.718 202.591 135.346 204.929 137.969 207.219C139.798 208.816 141.731 210.363 143.438 212.094C143.876 212.539 144.26 213.044 144.688 213.5C145.982 214.88 147.374 216.169 148.688 217.531C151.608 220.56 154.508 223.652 157.25 226.844C161.367 231.636 165.202 236.627 169.062 241.625C172.285 245.798 175.537 249.952 178.719 254.156C185.588 263.234 192.26 272.587 200.094 280.875C201.86 282.744 203.7 284.571 205.562 286.344C206.586 287.318 207.609 288.381 208.75 289.219C209.489 289.761 210.315 290.156 211.062 290.688C211.773 291.193 212.464 291.78 213.25 292.156C214.026 292.528 214.868 292.674 215.688 292.938C216.798 293.294 217.882 293.752 219 294.094C219.784 294.478 220.741 294.159 221.125 293.375C221.509 292.591 221.191 291.634 220.406 291.25C219.578 290.653 218.664 290.038 217.969 289.281C217.456 288.723 217.053 288.05 216.531 287.5C216.003 286.943 215.354 286.512 214.781 286C214.17 285.453 213.69 284.781 213.125 284.188C211.582 282.566 209.865 281.15 208.375 279.469C202.898 273.29 197.895 266.704 192.875 260.156C186.956 252.434 181.411 244.469 175.531 236.719C171.644 231.595 167.537 226.605 163.469 221.625C159.857 217.204 156.217 212.802 152.219 208.719C151.295 207.776 150.31 206.93 149.344 206.031C147.913 204.701 146.566 203.29 145.125 201.969C141.836 198.953 138.296 196.323 134.594 193.844C132.557 192.48 130.571 191.044 128.375 189.938C127.295 189.393 126.192 188.839 125.031 188.5C124.442 188.328 123.813 188.311 123.219 188.156C122.081 187.859 120.997 187.408 119.906 186.969C117.239 185.894 114.551 184.578 111.75 183.875C110.618 183.591 109.48 183.514 108.312 183.5Z" fill="#16152F"/>
<path d="M82.656 272.438C81.488 272.405 80.572 272.493 79.406 272.531C78.326 272.566 77.229 272.467 76.156 272.594C75.614 272.658 75.099 272.839 74.562 272.938C73.494 273.133 72.413 273.309 71.344 273.5C69.699 273.793 68.094 274.142 66.469 274.531C65.359 274.797 64.256 275.026 63.219 275.5C62.161 275.984 61.16 276.632 60.156 277.219C58.786 277.849 58.182 279.473 58.812 280.844C59.443 282.214 61.067 282.818 62.438 282.188C63.89 281.698 65.384 281.337 66.812 280.781C67.266 280.605 67.699 280.385 68.156 280.219C69.891 279.586 71.816 279.168 73.656 279.062C74.576 279.01 75.518 279.14 76.438 279.188C77.341 279.235 78.258 279.169 79.156 279.281C80.507 279.45 81.828 279.804 83.156 280.094C84.053 280.289 84.963 280.46 85.844 280.719C87.654 281.25 89.393 282.054 91.156 282.719C93.984 283.784 96.776 284.868 99.469 286.25C101.379 287.231 103.182 288.38 105.031 289.469C108.997 291.803 112.809 294.361 116.531 297.062C122.497 301.393 128.157 306.097 133.969 310.625C139.439 314.887 144.933 319.114 150.5 323.25C161.43 331.371 172.878 338.931 186.406 341.812C188.035 342.159 189.634 342.202 191.281 342.375C191.818 342.431 192.368 342.553 192.906 342.594C194.509 342.715 196.118 342.526 197.719 342.469C199.857 342.393 201.963 342.262 204.094 342.062C205.062 341.951 205.768 341.061 205.656 340.094C205.545 339.126 204.655 338.451 203.688 338.562C201.752 338.83 199.768 338.979 197.812 338.812C196.339 338.687 194.943 338.249 193.5 337.969C193.024 337.876 192.534 337.862 192.062 337.75C190.638 337.411 189.265 336.768 187.875 336.312C186.453 335.846 184.995 335.422 183.625 334.812C179.261 332.87 175.103 330.493 171 328.062C168.551 326.612 166.219 324.988 163.875 323.375C155.273 317.457 147.315 310.726 139.344 304C133.133 298.76 126.699 293.739 120.125 288.969C116.691 286.477 113.221 284.051 109.594 281.844C107.098 280.324 104.496 279.008 101.875 277.719C99.345 276.474 96.751 275.241 94.062 274.375C91.93 273.688 89.734 273.352 87.531 273C85.907 272.741 84.306 272.484 82.656 272.438Z" fill="#16152F"/>
<path d="M88.0941 367.688C84.7711 367.603 81.4151 367.674 78.0941 367.75C75.2961 367.814 72.5491 367.913 69.7811 368.375C66.5541 368.914 63.1441 369.882 60.0941 371.062C55.1751 372.966 50.3771 375.646 46.9061 379.688C45.6921 381.101 44.2641 382.742 43.6881 384.562C43.4691 385.253 43.4091 386.006 43.2811 386.719C42.6361 387.634 42.8351 388.886 43.7501 389.531C44.6651 390.177 45.9481 389.946 46.5941 389.031C47.1821 388.712 47.7991 388.465 48.3751 388.125C49.7681 387.303 50.9141 385.985 52.1561 384.969C53.9931 383.465 55.8871 382.002 57.9061 380.75C60.5891 379.087 63.7171 377.848 66.8121 377.219C68.6611 376.843 70.5641 376.654 72.4381 376.438C75.9821 376.027 79.5251 375.793 83.0941 375.781C85.2461 375.774 87.3791 375.939 89.5311 375.906C90.6321 375.89 91.7431 375.772 92.8441 375.75C96.2091 375.684 99.5431 375.682 102.906 375.469C105.17 375.325 107.414 374.984 109.656 374.656C111.343 374.41 112.996 374.074 114.625 373.562C115.167 373.392 115.705 373.243 116.219 373C116.745 372.751 117.22 372.394 117.719 372.094C118.562 371.924 119.107 371.093 118.938 370.25C118.768 369.407 117.937 368.862 117.094 369.031C113.932 368.524 110.781 368.859 107.594 368.781C104.93 368.716 102.254 368.562 99.5941 368.406C97.4181 368.279 95.2351 368.221 93.0621 368.062C91.4031 367.942 89.7611 367.73 88.0941 367.688Z" fill="#16152F"/>
<path d="M211.75 405.062C208.889 405.483 206.135 406.277 203.25 406.562C201.674 406.718 200.075 406.725 198.5 406.906C196.878 407.093 195.251 407.37 193.656 407.719C187.952 408.965 182.341 410.546 176.75 412.219C173.782 413.107 170.874 414.203 167.938 415.188C158.152 418.468 148.48 422.054 139.031 426.219C134.867 428.054 130.681 429.843 126.562 431.781C122.5 433.694 118.578 435.89 114.688 438.125C110.372 440.604 106.155 443.262 102.125 446.188C98.2831 448.977 94.4381 451.935 91.0311 455.25C87.3841 458.8 84.1341 462.836 81.4061 467.125C80.8171 468.051 80.1561 468.946 79.6251 469.906C79.0981 470.859 78.6871 471.876 78.1881 472.844C77.2051 474.745 76.0951 476.578 75.2811 478.562C74.0751 481.507 73.3511 484.71 73.1561 487.875C72.8651 489.163 73.6811 490.459 74.9691 490.75C76.2561 491.041 77.5521 490.225 77.8441 488.938C78.3961 487.606 78.8761 486.245 79.4061 484.906C79.9261 483.595 80.5591 482.353 81.1251 481.062C81.8911 479.318 82.6051 477.557 83.6251 475.938C84.1421 475.116 84.7911 474.369 85.3751 473.594C85.9641 472.812 86.4741 471.976 87.0941 471.219C90.0281 467.634 93.3261 464.449 96.7501 461.344C98.3601 459.884 99.9621 458.401 101.625 457C105.116 454.058 108.908 451.444 112.719 448.938C117.281 445.936 122.036 443.271 126.844 440.688C130.709 438.611 134.594 436.558 138.594 434.75C142.644 432.919 146.776 431.264 150.906 429.625C153.852 428.456 156.839 427.406 159.812 426.312C160.992 425.879 162.12 425.365 163.312 424.969C171.899 422.114 180.585 419.583 189.219 416.875C192.876 415.728 196.623 414.654 200.156 413.156C202.068 412.346 203.863 411.35 205.812 410.625C208.038 409.797 210.349 409.27 212.594 408.5C213.54 408.27 214.136 407.322 213.906 406.375C213.677 405.428 212.697 404.833 211.75 405.062Z" fill="#16152F"/>
<path d="M238.031 441.5C237.606 441.653 237.239 441.966 237.031 442.406C236.257 443.538 235.665 444.72 234.938 445.875C233.694 447.848 232.071 449.696 230.562 451.469C229.257 453.003 227.797 454.389 226.406 455.844C225.685 456.598 224.999 457.399 224.281 458.156C221.632 460.951 218.738 463.529 215.844 466.062C210.898 470.391 205.815 474.539 200.719 478.688C199.761 479.467 198.875 480.328 197.906 481.094C197.418 481.479 196.87 481.811 196.375 482.188C194.392 483.697 192.579 485.389 190.656 486.969C188.729 488.552 186.79 490.15 184.875 491.75C183.443 492.947 181.958 494.099 180.594 495.375C180.146 495.793 179.764 496.242 179.312 496.656C178.396 497.496 177.377 498.248 176.438 499.062C175.512 499.865 174.642 500.722 173.75 501.562C172.427 502.809 171.073 504.002 169.781 505.281C167.666 507.376 165.654 509.583 163.719 511.844C159.242 517.073 155.473 522.71 152.656 529C151.764 530.993 150.765 533.078 150.281 535.219C150.159 535.76 150.123 536.296 150.031 536.844C149.758 538.477 149.379 540.141 149.469 541.812C149.499 542.381 149.646 542.932 149.688 543.5C149.727 544.049 149.718 544.605 149.719 545.156C149.728 549.167 149.887 553.069 150.781 557C151.464 560.003 152.767 562.941 154.312 565.594C154.643 566.161 155.053 566.708 155.375 567.281C155.701 567.862 155.917 568.486 156.25 569.062C156.587 569.647 157.002 570.188 157.375 570.75C157.868 571.669 159.018 571.993 159.938 571.5C160.857 571.007 161.212 569.888 160.719 568.969C160.468 568.367 160.238 567.75 159.969 567.156C159.713 566.592 159.348 566.078 159.125 565.5C158.906 564.932 158.793 564.303 158.625 563.719C157.857 561.052 157.277 558.359 156.656 555.656C156.001 552.801 155.546 549.817 155.656 546.875C155.692 545.933 155.731 544.997 156 544.094C156.138 543.632 156.425 543.202 156.594 542.75C156.755 542.316 156.874 541.883 157 541.438C157.241 540.589 157.42 539.614 157.719 538.781C157.874 538.348 158.09 537.964 158.25 537.531C158.893 535.79 159.359 533.993 160.094 532.281C162.052 527.716 164.92 523.506 167.906 519.562C170.587 516.022 173.582 512.756 176.594 509.5C178.187 507.777 179.868 506.214 181.531 504.562C182.376 503.724 183.191 502.806 184.094 502.031C184.559 501.632 185.063 501.301 185.531 500.906C186.5 500.09 187.25 499.317 188.188 498.469C189.554 497.232 191.004 496.07 192.406 494.875C193.339 494.08 194.213 493.22 195.156 492.438C196.588 491.249 198.096 490.124 199.531 488.938C200.487 488.147 201.367 487.272 202.312 486.469C203.257 485.666 204.266 484.98 205.219 484.188C209.441 480.678 213.61 477.082 217.688 473.406C221.578 469.899 225.228 466.188 228.781 462.344C229.533 461.53 230.302 460.736 231 459.875C232.677 457.807 234.179 455.536 235.594 453.281C236.685 451.541 237.557 449.724 238.5 447.906C239.204 446.548 239.782 445.381 240.219 443.906C240.634 443.025 240.256 441.978 239.375 441.562C238.934 441.355 238.456 441.347 238.031 441.5Z" fill="#16152F"/>
<path d="M277.531 466.375C276.602 466.668 276.082 467.665 276.375 468.594C276.457 469.168 276.52 469.742 276.625 470.312C276.725 470.856 276.998 471.385 277 471.938C277.002 472.536 276.703 473.091 276.656 473.688C276.614 474.221 276.7 474.749 276.75 475.281C276.986 477.811 277.347 480.36 277.375 482.906C277.467 491.368 275.724 499.883 272.719 507.781C270.83 512.746 268.564 517.536 266.188 522.281C262.952 528.742 259.522 535.09 256.188 541.5C255.403 543.008 254.536 544.508 253.781 546.031C251.513 550.611 249.545 555.375 247.75 560.156C246.746 562.832 245.736 565.494 244.969 568.25C244.037 571.596 243.412 575.03 242.938 578.469C242.616 580.801 242.345 583.143 242.312 585.5C242.247 590.338 242.763 595.29 243.719 600.031C244.367 603.248 245.282 606.297 246.406 609.375C246.874 610.655 247.274 611.984 247.969 613.156C248.758 614.488 249.762 615.373 250.719 616.531C252.084 618.185 253.096 620.211 254.219 622.031C254.789 623.057 256.099 623.414 257.125 622.844C258.151 622.273 258.508 620.995 257.938 619.969C257.041 618.169 255.951 616.254 255.594 614.25C255.474 613.577 255.498 612.864 255.406 612.188C255.236 610.933 254.964 609.701 254.562 608.5C254.372 607.929 254.121 607.355 253.938 606.781C253.409 605.135 253.032 603.43 252.625 601.75C251.862 598.601 251.304 595.306 251.188 592.062C251.005 586.967 251.458 581.721 252.438 576.719C252.933 574.189 253.627 571.701 254.312 569.219C254.872 567.195 255.451 565.199 256.156 563.219C257.788 558.637 259.8 554.264 261.812 549.844C264.807 543.266 268.021 536.794 271.156 530.281C277.137 517.857 282.908 504.898 284.125 491C284.421 487.62 284.375 484.285 284.094 480.906C283.903 478.617 283.563 476.27 282.906 474.062C282.736 473.491 282.57 472.896 282.281 472.375C281.968 471.811 281.429 471.412 281.125 470.844C280.843 470.317 280.79 469.708 280.562 469.156C280.334 468.6 280.018 468.069 279.75 467.531C279.457 466.602 278.46 466.082 277.531 466.375Z" fill="#16152F"/>
<path d="M315.844 479.75C314.942 480.12 314.505 481.161 314.875 482.062C314.916 483.305 314.958 484.56 315.188 485.781C315.504 487.466 316.079 489.099 316.531 490.75C317.112 492.87 317.651 495.003 318.094 497.156C318.942 501.276 319.481 505.461 319.75 509.656C319.913 512.206 320.164 514.754 320.125 517.312C320.064 521.35 319.937 525.378 319.656 529.406C318.821 541.39 317.003 553.273 316.469 565.281C316.198 571.374 316.523 577.355 317.25 583.406C317.374 584.44 317.477 585.474 317.656 586.5C318.295 590.155 319.399 593.746 320.688 597.219C321.462 599.307 322.305 601.371 323.344 603.344C324.973 606.437 326.745 609.604 328.844 612.406C330.372 614.447 332.145 616.202 333.875 618.062C335.232 619.522 336.473 621.082 337.875 622.5C338.606 623.24 339.492 623.887 340.281 624.562C341.663 625.745 343.072 626.817 344.594 627.812C345.368 628.548 346.577 628.524 347.312 627.75C348.048 626.976 348.024 625.735 347.25 625C346.022 623.322 344.7 621.744 343.438 620.094C343.024 619.553 342.687 619.055 342.25 618.531C341.05 617.093 339.754 615.735 338.688 614.188C337.376 612.284 336.319 610.182 335.156 608.188C334.078 606.337 332.935 604.54 331.969 602.625C331.284 601.268 330.717 599.836 330.125 598.438C327.909 593.206 326.321 587.778 325.281 582.188C324.517 578.082 324.302 573.883 324.219 569.719C324.152 566.395 324.213 563.102 324.406 559.781C324.929 550.825 326.096 541.917 326.719 532.969C327.122 527.17 327.304 521.402 327.125 515.594C327.058 513.417 327.031 511.232 326.812 509.062C326.474 505.706 325.924 502.397 325.25 499.094C324.547 495.646 323.724 492.212 322.594 488.875C322.009 487.149 321.41 485.369 320.5 483.781C319.857 482.66 318.994 481.676 318.125 480.719C317.755 479.817 316.745 479.38 315.844 479.75Z" fill="#16152F"/>
<path d="M350.875 479.625C349.976 480.001 349.561 481.039 349.938 481.938C350.822 484.537 351.854 487.092 352.562 489.75C352.917 491.078 353.086 492.375 353.344 493.719C353.523 494.655 353.821 495.564 354 496.5C354.283 497.977 354.492 499.498 354.812 500.969C355.381 503.574 356.008 506.155 356.625 508.75C360.288 524.155 363.56 539.704 368.469 554.781C369.246 557.168 370.208 559.475 371.031 561.844C373.981 570.329 377.294 578.662 381.719 586.5C384.368 591.192 387.338 595.918 391.062 599.844C394.199 603.149 397.887 605.938 401.875 608.125C405.746 610.247 410.116 611.921 414.594 611.906C416.136 611.901 417.651 611.637 419.156 611.344C420.198 611.362 421.076 610.511 421.094 609.469C421.112 608.427 420.261 607.58 419.219 607.562C417.893 607.236 416.62 606.824 415.312 606.438C411.794 605.398 408.314 604.331 405.156 602.406C403.05 601.122 401.02 599.466 399.25 597.75C397.974 596.513 396.858 595.117 395.688 593.781C389.452 586.67 385.077 578.18 381.375 569.531C379.979 566.269 378.629 562.937 377.438 559.594C376.825 557.874 376.38 556.088 375.844 554.344C374.572 550.214 373.258 546.122 372.062 541.969C369.375 532.635 366.804 523.239 364.344 513.844C363.085 509.037 361.965 504.179 360.469 499.438C360.007 497.976 359.411 496.558 358.875 495.125C358.534 494.214 358.301 493.278 357.938 492.375C357.587 491.504 357.154 490.656 356.812 489.781C355.613 486.707 354.662 483.551 353.188 480.594C352.812 479.695 351.774 479.249 350.875 479.625Z" fill="#16152F"/>
<path d="M389.969 469.562C389.012 469.747 388.378 470.668 388.562 471.625C388.609 475.762 389.739 479.28 391.25 483.094C393.827 489.599 397.63 495.587 401.562 501.344C408.205 511.069 416.002 520.044 424.438 528.25C427.489 531.219 430.701 534.013 433.906 536.812C440.868 542.894 448.332 548.497 456.5 552.875C460.175 554.845 464.021 556.571 467.938 558C470.66 558.993 473.456 559.87 476.344 560.219C478.206 560.444 479.953 560.248 481.812 560.188C483.546 560.131 485.312 560.175 487.031 559.906C488.31 559.706 489.504 559.309 490.719 558.875C491.507 558.593 492.317 558.381 493.062 558C493.782 557.632 494.477 557.068 495.125 556.594C496.168 556.09 496.597 554.856 496.094 553.812C495.59 552.769 494.324 552.309 493.281 552.812C489.983 553.643 486.587 554.381 483.156 554.25C481.608 554.191 480.263 553.703 478.781 553.312C477.633 553.01 476.461 552.737 475.312 552.438C473.232 551.896 471.202 551.321 469.188 550.562C463.163 548.292 457.443 544.931 452.094 541.375C449.327 539.535 446.632 537.557 444 535.531C441.723 533.779 439.397 532.064 437.219 530.188C431.447 525.215 426.056 519.862 420.875 514.281C408.979 501.468 398.592 487.262 392.031 470.969C391.847 470.012 390.925 469.378 389.969 469.562Z" fill="#16152F"/>
<path d="M419.375 448.406C418.959 448.499 418.59 448.737 418.344 449.125C417.85 449.901 418.068 450.944 418.844 451.438C419.296 452.19 419.76 452.973 420.438 453.531C420.76 453.797 421.174 453.926 421.5 454.188C422.175 454.728 422.705 455.453 423.375 456C425.045 457.363 426.915 458.299 428.781 459.344C429.529 459.763 430.219 460.241 430.969 460.656C432.099 461.282 433.335 461.704 434.5 462.25C439.212 464.459 444.145 466.281 449.125 467.812C450.386 468.2 451.641 468.532 452.906 468.906C455.023 469.534 457.152 470.224 459.281 470.812C470.803 473.999 482.493 476.441 494.062 479.438C499.471 480.838 504.84 482.447 510.188 484.062C513.775 485.146 517.345 486.268 520.875 487.531C522.785 488.215 524.665 489.004 526.562 489.719C527.673 490.137 528.813 490.631 529.969 490.906C530.764 491.096 531.602 491.17 532.375 491.438C533.336 491.77 533.633 492.036 534.5 492.562C535.961 493.308 537.754 492.711 538.5 491.25C539.246 489.789 538.648 487.996 537.188 487.25C536.426 486.929 535.691 486.61 535 486.156C534.277 485.681 533.668 485.041 532.969 484.531C531.958 483.794 530.714 483.234 529.594 482.688C527.669 481.749 525.642 480.985 523.656 480.188C520.032 478.732 516.346 477.407 512.625 476.219C506.735 474.338 500.702 472.945 494.719 471.406C483.632 468.555 472.5 465.941 461.469 462.875C459.403 462.301 457.299 461.789 455.25 461.156C454.035 460.781 452.863 460.341 451.656 459.938C446.945 458.363 442.234 456.736 437.594 454.969C436.464 454.538 435.417 453.92 434.281 453.5C433.527 453.221 432.743 453.026 432 452.719C430.161 451.958 428.423 450.988 426.531 450.344C425.761 450.081 424.94 449.999 424.188 449.688C423.824 449.537 423.518 449.281 423.156 449.125C422.168 448.698 421.7 448.736 420.625 448.625C420.237 448.378 419.791 448.314 419.375 448.406Z" fill="#16152F"/>
<path d="M533.688 396.75C532.894 396.733 532.087 397.032 531.469 397.625C530.77 397.949 530.023 397.933 529.281 398.094C528.518 398.26 527.772 398.632 527.031 398.875C526.06 399.194 525.05 399.425 524.062 399.688C516.753 401.626 509.287 402.497 501.812 403.531C496.775 404.228 491.761 405.081 486.719 405.75C482.529 406.306 478.323 406.714 474.156 407.438C472.799 407.673 471.447 407.997 470.094 408.25C468.769 408.498 467.42 408.639 466.094 408.875C463.98 409.251 461.887 409.71 459.781 410.125C458.189 410.438 456.575 410.665 455 411.062C452.511 411.692 450.082 412.515 447.688 413.438C445.373 414.329 443.123 415.321 441.062 416.719C440.411 417.16 439.706 417.65 439.156 418.219C437.767 419.655 436.895 422.101 436.688 424.062C436.532 425.024 437.195 425.939 438.156 426.094C439.118 426.249 440.001 425.587 440.156 424.625C440.228 424.337 440.33 423.987 440.531 423.75C441.035 423.158 442.024 422.963 442.688 422.625C443.556 422.183 444.371 421.712 445.281 421.344C448.961 419.853 452.822 419.055 456.688 418.219C458.99 417.721 461.273 417.11 463.594 416.688C466.12 416.228 468.67 415.812 471.219 415.5C473.47 415.224 475.718 415.043 477.969 414.75C481.212 414.327 484.442 413.812 487.688 413.406C492.745 412.774 497.851 412.399 502.906 411.75C507.135 411.207 511.359 410.497 515.562 409.781C520.018 409.023 524.573 408.297 528.844 406.781C530.127 406.326 531.519 405.931 532.656 405.156C533.833 404.354 534.953 403.245 535.781 402.094C537.019 400.908 537.061 398.956 535.875 397.719C535.282 397.1 534.481 396.767 533.688 396.75Z" fill="#16152F"/>
<path d="M486.344 348.875C483.525 349.04 481.113 349.976 478.562 351.125C476.703 351.963 474.953 352.971 473.25 354.094C469.72 356.42 466.587 359.126 463.531 362.031C461.987 363.499 460.377 364.927 458.938 366.5C456.946 368.677 455.058 370.971 453.188 373.25C452.152 374.512 451.085 375.724 450.188 377.094C449.117 378.729 448.353 380.502 447.312 382.156C446.733 383.078 446.139 383.973 445.531 384.875C445.337 385.163 445.108 385.431 444.969 385.75C444.824 386.081 444.78 386.463 444.688 386.812C444.175 387.533 444.342 388.518 445.062 389.031C445.783 389.544 446.768 389.377 447.281 388.656C447.58 388.456 447.922 388.304 448.188 388.062C448.699 387.597 449.044 386.983 449.469 386.438C450.13 385.588 450.821 384.718 451.562 383.938C452.89 382.539 454.413 381.367 455.688 379.906C456.465 379.016 457.146 378.06 457.906 377.156C459.194 375.624 460.543 374.091 461.906 372.625C463.814 370.575 465.763 368.504 467.812 366.594C470.849 363.764 474.212 361.095 477.719 358.875C479.17 357.956 480.667 357.052 482.219 356.312C483.978 355.474 485.826 354.763 487.594 353.938C488.995 353.598 489.84 352.182 489.5 350.781C489.16 349.38 487.745 348.535 486.344 348.875Z" fill="#16152F"/>
<path d="M460.25 333.5C459.276 333.383 458.116 333.633 457.188 333.906C454.087 334.817 451.419 337.025 449.125 339.219C447.069 341.184 445.25 343.388 443.5 345.625C439.63 350.571 436.265 355.986 433.5 361.625C433.012 362.621 432.509 363.614 432.125 364.656C431.773 365.612 431.531 366.617 431.25 367.594C430.933 368.693 430.51 369.844 430.469 371C430.455 371.383 430.576 372.14 430.625 372.531C430.414 373.482 431.018 374.414 431.969 374.625C432.92 374.836 433.851 374.232 434.062 373.281C434.309 372.924 434.583 372.588 434.812 372.219C435.346 371.36 435.678 370.373 436.125 369.469C436.539 368.632 437.038 367.827 437.469 367C438.288 365.428 438.974 363.798 439.781 362.219C441.771 358.328 444.063 354.561 446.594 351C449.313 347.175 452.479 343.2 456.625 340.844C457.39 340.409 458.166 340.063 459 339.781C459.447 339.63 459.971 339.568 460.406 339.406C460.743 339.281 461.059 339.095 461.406 339C462.747 339.196 463.991 338.278 464.188 336.938C464.384 335.597 463.435 334.352 462.094 334.156C461.452 333.87 460.971 333.587 460.25 333.5Z" fill="#16152F"/>
<path d="M439.156 331.719C438.77 331.585 438.335 331.589 437.938 331.781C435.966 332.624 434.363 333.891 432.688 335.219C430.821 336.697 429.104 338.338 427.531 340.125C422.676 345.643 418.141 353.251 417.875 360.844C417.805 362.829 418.201 364.714 418.688 366.625C418.933 367.568 419.87 368.121 420.812 367.875C421.755 367.629 422.34 366.661 422.094 365.719C421.142 362.167 422.243 357.768 423.469 354.406C425.241 349.546 427.952 345.03 431.344 341.125C432.728 339.531 434.224 338.002 435.906 336.719C436.911 335.952 438.229 335.3 439.344 334.688C440.138 334.303 440.447 333.325 440.062 332.531C439.87 332.134 439.542 331.853 439.156 331.719Z" fill="#16152F"/>
<path d="M408.844 338.219C408.42 338.336 408.046 338.619 407.812 339.031C407.094 340.199 406.656 341.405 406.188 342.688C404.305 347.843 404.233 353.432 405.25 358.781C405.551 360.365 405.992 361.911 406.406 363.469C406.747 364.381 407.775 364.841 408.688 364.5C409.6 364.159 410.06 363.163 409.719 362.25C408.352 359.528 408.151 356.378 408.188 353.375C408.227 350.147 408.46 346.859 409.406 343.75C409.729 342.689 410.308 341.702 410.812 340.719C411.279 339.894 410.981 338.842 410.156 338.375C409.744 338.142 409.267 338.101 408.844 338.219Z" fill="#16152F"/>
<path d="M392.656 356.688C391.694 357.058 391.223 358.131 391.594 359.094C392.427 361.299 393.224 363.546 394.406 365.594C395.049 366.708 395.885 367.712 396.719 368.688C397.455 369.325 398.55 369.268 399.188 368.531C399.825 367.795 399.768 366.669 399.031 366.031C397.059 361.887 398.004 363.42 397.031 361.906C396.254 360.697 398.217 364.527 398.719 365.875C398.753 365.968 398.548 365.779 398.469 365.719C398.263 365.562 398.18 365.46 398.031 365.25C397.758 364.865 397.524 364.452 397.312 364.031C396.693 362.798 396.317 361.438 395.906 360.125C395.82 359.851 395.746 359.586 395.656 359.312C395.567 359.042 395.247 358.245 395.375 358.5C396.624 360.995 395.358 358.505 395.062 357.75C394.692 356.787 393.619 356.317 392.656 356.688Z" fill="#16152F"/>
<path d="M382.562 363.094C381.709 363.372 381.253 364.271 381.531 365.125C382.232 368.015 382.771 371.623 384.812 373.938C386.001 375.284 387.636 376.155 389.25 376.875C390.174 377.184 391.191 376.674 391.5 375.75C391.809 374.826 391.299 373.84 390.375 373.531C390.251 373.507 389.677 373.414 389.531 373.344C388.804 372.994 388.374 372.19 388 371.531C387.352 370.391 386.773 369.309 386.25 368.094C385.935 367.362 385.704 366.833 385.406 366.094C385.143 365.439 384.893 364.778 384.625 364.125C384.347 363.271 383.416 362.816 382.562 363.094Z" fill="#16152F"/>
</g>
<defs>
<clipPath id="clip0_465_4">
<rect width="555" height="657" fill="white"/>
</clipPath>
</defs>
</svg>
