<svg width="20.000000" height="23.000000" viewBox="0 0 20 23" fill="none" xmlns="http://www.w3.org/2000/svg" xmlns:xlink="http://www.w3.org/1999/xlink">
	<desc>
			Created with Pixso.
	</desc>
	<defs/>
	<path id="Vector" d="M10 -0.5C11.26 -0.52 12.5 -0.51 13.75 -0.52C13.83 0.95 14.35 2.45 15.43 3.48C16.5 4.55 18.02 5.04 19.5 5.2L19.5 9.07C18.11 9.02 16.72 8.73 15.47 8.14C14.92 7.89 14.41 7.57 13.91 7.24C13.9 10.05 13.92 12.85 13.89 15.64C13.82 16.98 13.38 18.31 12.6 19.42C11.34 21.26 9.16 22.46 6.93 22.5C5.56 22.57 4.19 22.2 3.02 21.51C1.08 20.37 -0.28 18.28 -0.48 16.03C-0.5 15.55 -0.51 15.07 -0.49 14.6C-0.32 12.78 0.58 11.03 1.98 9.84C3.57 8.46 5.8 7.8 7.88 8.19C7.9 9.61 7.84 11.03 7.84 12.45C6.89 12.15 5.78 12.23 4.94 12.81C4.34 13.2 3.88 13.81 3.64 14.49C3.44 14.98 3.5 15.51 3.51 16.03C3.74 17.6 5.25 18.93 6.86 18.78C7.94 18.77 8.96 18.15 9.52 17.24C9.7 16.92 9.9 16.6 9.91 16.22C10.01 14.51 9.97 12.8 9.98 11.08C9.99 7.22 9.97 3.36 10 -0.5Z" fill="#FFFFFF" fill-opacity="1.000000" fill-rule="nonzero"/>
</svg>
