<svg width="20.000000" height="23.000000" viewBox="0 0 20 23" fill="none" xmlns="http://www.w3.org/2000/svg" xmlns:xlink="http://www.w3.org/1999/xlink">
	<desc>
			Created with Pixso.
	</desc>
	<defs/>
	<path id="Vector" d="M9.08 3.91L10.75 3.91L10.75 8.91L9.08 8.91L9.08 3.91ZM13.66 3.91L15.33 3.91L15.33 8.91L13.66 8.91L13.66 3.91ZM3.66 -0.67L-0.5 3.5L-0.5 18.49L4.5 18.49L4.5 22.66L8.66 18.49L11.99 18.49L19.5 11L19.5 -0.67L3.66 -0.67ZM17.83 10.16L14.5 13.49L11.16 13.49L8.24 16.41L8.24 13.49L4.5 13.49L4.5 0.99L17.83 0.99L17.83 10.16Z" fill="#FFFFFF" fill-opacity="1.000000" fill-rule="nonzero"/>
</svg>
