<svg width="29.000000" height="20.000000" viewBox="0 0 29 20" fill="none" xmlns="http://www.w3.org/2000/svg" xmlns:xlink="http://www.w3.org/1999/xlink">
	<desc>
			Created with Pixso.
	</desc>
	<defs/>
	<path id="Vector" d="M27.71 3.08C27.54 2.49 27.22 1.95 26.79 1.51C26.35 1.07 25.81 0.76 25.22 0.59C22.98 1.71e-5 14.01 1.71e-5 14.01 1.71e-5C14.01 1.71e-5 5.05 -0.02 2.8 0.59C2.21 0.76 1.66 1.07 1.23 1.51C0.79 1.95 0.48 2.49 0.31 3.08C-0.11 5.37 -0.32 7.69 -0.31 10.01C-0.32 12.32 -0.11 14.63 0.31 16.91C0.48 17.5 0.79 18.04 1.23 18.48C1.66 18.91 2.21 19.23 2.8 19.4C5.03 20 14.01 20 14.01 20C14.01 20 22.96 20 25.22 19.4C25.81 19.23 26.35 18.91 26.79 18.48C27.22 18.04 27.54 17.5 27.71 16.91C28.12 14.63 28.32 12.32 28.3 10.01C28.32 7.69 28.12 5.37 27.71 3.08ZM11.14 14.29L11.14 5.71L18.61 10.01L11.14 14.29Z" fill="#FFFFFF" fill-opacity="1.000000" fill-rule="nonzero"/>
</svg>
